# 3ds Max Wavefront OBJ Exporter v0.97b - (c)2007 guruware
# File Created: 01.04.2020 20:06:03

#
# object Box001
#

v  -0.2789 0.0000 4.4996
v  -0.2789 0.0000 2.9523
v  3.2685 0.0000 2.9523
v  3.2685 0.0000 4.4996
v  -0.2789 9.1692 4.4996
v  3.2685 9.1692 4.4996
v  3.2685 9.1692 2.9523
v  -0.2789 9.1692 2.9523
# 8 vertices

vn 0.0000 -1.0000 -0.0000
vn 0.0000 1.0000 -0.0000
vn 0.0000 0.0000 1.0000
vn 1.0000 0.0000 -0.0000
vn 0.0000 0.0000 -1.0000
vn -1.0000 0.0000 -0.0000
# 6 vertex normals

vt 12.0000 0.0000 0.0000
vt 12.0000 2.7000 0.0000
vt 0.0000 2.7000 0.0000
vt 0.0000 0.0000 0.0000
vt 12.0000 16.0000 0.0000
vt 0.0000 16.0000 0.0000
vt 2.7000 0.0000 0.0000
vt 2.7000 16.0000 0.0000
# 8 texture coords

o Box001
g Box001
s 2
f 1/1/1 2/2/1 3/3/1 
f 3/3/1 4/4/1 1/1/1 
s 4
f 5/4/2 6/1/2 7/2/2 
f 7/2/2 8/3/2 5/4/2 
s 8
f 1/4/3 4/1/3 6/5/3 
f 6/5/3 5/6/3 1/4/3 
s 16
f 4/4/4 3/7/4 7/8/4 
f 7/8/4 6/6/4 4/4/4 
s 32
f 3/4/5 2/1/5 8/5/5 
f 8/5/5 7/6/5 3/4/5 
s 64
f 2/4/6 1/7/6 5/8/6 
f 5/8/6 8/6/6 2/4/6 
# 12 faces

#
# object Box002
#

v  -8.1977 0.0000 4.4996
v  -8.1977 0.0000 2.9523
v  -5.6588 0.0000 2.9523
v  -5.6588 0.0000 4.4996
v  -8.1977 4.6890 4.4996
v  -5.6588 4.6890 4.4996
v  -5.6588 4.6890 2.9523
v  -8.1977 4.6890 2.9523
# 8 vertices

vn 0.0000 -1.0000 -0.0000
vn 0.0000 1.0000 -0.0000
vn 0.0000 0.0000 1.0000
vn 1.0000 0.0000 -0.0000
vn 0.0000 0.0000 -1.0000
vn -1.0000 0.0000 -0.0000
# 6 vertex normals

vt 12.0000 0.0000 0.0000
vt 12.0000 2.7000 0.0000
vt 0.0000 2.7000 0.0000
vt 0.0000 0.0000 0.0000
vt 12.0000 16.0000 0.0000
vt 0.0000 16.0000 0.0000
vt 2.7000 0.0000 0.0000
vt 2.7000 16.0000 0.0000
# 8 texture coords

o Box002
g Box002
s 2
f 9/9/7 10/10/7 11/11/7 
f 11/11/7 12/12/7 9/9/7 
s 4
f 13/12/8 14/9/8 15/10/8 
f 15/10/8 16/11/8 13/12/8 
s 8
f 9/12/9 12/9/9 14/13/9 
f 14/13/9 13/14/9 9/12/9 
s 16
f 12/12/10 11/15/10 15/16/10 
f 15/16/10 14/14/10 12/12/10 
s 32
f 11/12/11 10/9/11 16/13/11 
f 16/13/11 15/14/11 11/12/11 
s 64
f 10/12/12 9/15/12 13/16/12 
f 13/16/12 16/14/12 10/12/12 
# 12 faces

