# 3ds Max Wavefront OBJ Exporter v0.97b - (c)2007 guruware
# File Created: 14.04.2020 23:46:22

#
# object checkPoint1
#

v  -12.90861 0.00000 -8.66789
v  -12.90861 0.00000 -9.06159
v  12.44381 0.00000 -9.06159
v  12.44381 0.00000 -8.66789
v  -12.90861 10.00000 -8.66789
v  12.44381 10.00000 -8.66789
v  12.44381 10.00000 -9.06159
v  -12.90861 10.00000 -9.06159
# 8 vertices

vn 0.00000 -1.00000 -0.00000
vn 0.00000 1.00000 -0.00000
vn 0.00000 0.00000 1.00000
vn 1.00000 0.00000 -0.00000
vn 0.00000 0.00000 -1.00000
vn -1.00000 0.00000 -0.00000
# 6 vertex normals

vt 25.35241 0.00000 0.00000
vt 25.35241 0.39370 0.00000
vt 0.00000 0.39370 0.00000
vt 0.00000 0.00000 0.00000
vt 25.35241 10.00000 0.00000
vt 0.00000 10.00000 0.00000
vt 0.39370 0.00000 0.00000
vt 0.39370 10.00000 0.00000
# 8 texture coords

o checkPoint1
g checkPoint1
s 2
f 1/1/1 2/2/1 3/3/1 
f 3/3/1 4/4/1 1/1/1 
s 4
f 5/4/2 6/1/2 7/2/2 
f 7/2/2 8/3/2 5/4/2 
s 8
f 1/4/3 4/1/3 6/5/3 
f 6/5/3 5/6/3 1/4/3 
s 16
f 4/4/4 3/7/4 7/8/4 
f 7/8/4 6/6/4 4/4/4 
s 32
f 3/4/5 2/1/5 8/5/5 
f 8/5/5 7/6/5 3/4/5 
s 64
f 2/4/6 1/7/6 5/8/6 
f 5/8/6 8/6/6 2/4/6 
# 12 faces

#
# object checkPoint2
#

v  -12.90861 0.00000 28.61504
v  -12.90861 0.00000 28.22134
v  12.44381 0.00000 28.22134
v  12.44381 0.00000 28.61504
v  -12.90861 10.00000 28.61504
v  12.44381 10.00000 28.61504
v  12.44381 10.00000 28.22134
v  -12.90861 10.00000 28.22134
# 8 vertices

vn 0.00000 -1.00000 -0.00000
vn 0.00000 1.00000 -0.00000
vn 0.00000 0.00000 1.00000
vn 1.00000 0.00000 -0.00000
vn 0.00000 0.00000 -1.00000
vn -1.00000 0.00000 -0.00000
# 6 vertex normals

vt 25.35241 0.00000 0.00000
vt 25.35241 0.39370 0.00000
vt 0.00000 0.39370 0.00000
vt 0.00000 0.00000 0.00000
vt 25.35241 10.00000 0.00000
vt 0.00000 10.00000 0.00000
vt 0.39370 0.00000 0.00000
vt 0.39370 10.00000 0.00000
# 8 texture coords

o checkPoint2
g checkPoint2
s 2
f 9/9/7 10/10/7 11/11/7 
f 11/11/7 12/12/7 9/9/7 
s 4
f 13/12/8 14/9/8 15/10/8 
f 15/10/8 16/11/8 13/12/8 
s 8
f 9/12/9 12/9/9 14/13/9 
f 14/13/9 13/14/9 9/12/9 
s 16
f 12/12/10 11/15/10 15/16/10 
f 15/16/10 14/14/10 12/12/10 
s 32
f 11/12/11 10/9/11 16/13/11 
f 16/13/11 15/14/11 11/12/11 
s 64
f 10/12/12 9/15/12 13/16/12 
f 13/16/12 16/14/12 10/12/12 
# 12 faces

#
# object checkPoint3
#

v  -14.81856 0.00000 61.18876
v  -14.71705 0.00000 60.80837
v  9.61562 0.00000 67.30152
v  9.51412 0.00000 67.68191
v  -14.81856 10.00000 61.18876
v  9.51412 10.00000 67.68191
v  9.61562 10.00000 67.30152
v  -14.71705 10.00000 60.80837
# 8 vertices

vn 0.00000 -1.00000 -0.00000
vn 0.00000 1.00000 -0.00000
vn -0.25783 0.00000 0.96619
vn 0.96619 0.00000 0.25783
vn 0.25783 0.00000 -0.96619
vn -0.96619 0.00000 -0.25783
# 6 vertex normals

vt 25.35241 0.00000 0.00000
vt 25.35241 0.39370 0.00000
vt 0.00000 0.39370 0.00000
vt 0.00000 0.00000 0.00000
vt 25.35241 10.00000 0.00000
vt 0.00000 10.00000 0.00000
vt 0.39370 0.00000 0.00000
vt 0.39370 10.00000 0.00000
# 8 texture coords

o checkPoint3
g checkPoint3
s 2
f 17/17/13 18/18/13 19/19/13 
f 19/19/13 20/20/13 17/17/13 
s 4
f 21/20/14 22/17/14 23/18/14 
f 23/18/14 24/19/14 21/20/14 
s 8
f 17/20/15 20/17/15 22/21/15 
f 22/21/15 21/22/15 17/20/15 
s 16
f 20/20/16 19/23/16 23/24/16 
f 23/24/16 22/22/16 20/20/16 
s 32
f 19/20/17 18/17/17 24/21/17 
f 24/21/17 23/22/17 19/20/17 
s 64
f 18/20/18 17/23/18 21/24/18 
f 21/24/18 24/22/18 18/20/18 
# 12 faces

#
# object checkPoint4
#

v  -52.63675 0.00000 82.72937
v  -52.24335 0.00000 82.74487
v  -53.23540 0.00000 107.90945
v  -53.62880 0.00000 107.89395
v  -52.63675 10.00000 82.72937
v  -53.62880 10.00000 107.89395
v  -53.23540 10.00000 107.90945
v  -52.24335 10.00000 82.74487
# 8 vertices

vn 0.00000 -1.00000 -0.00000
vn 0.00000 1.00000 -0.00000
vn -0.99922 0.00000 -0.03939
vn -0.03939 0.00000 0.99922
vn 0.99922 0.00000 0.03939
vn 0.03939 0.00000 -0.99922
# 6 vertex normals

vt 25.35241 0.00000 0.00000
vt 25.35241 0.39370 0.00000
vt 0.00000 0.39370 0.00000
vt 0.00000 0.00000 0.00000
vt 25.35241 10.00000 0.00000
vt 0.00000 10.00000 0.00000
vt 0.39370 0.00000 0.00000
vt 0.39370 10.00000 0.00000
# 8 texture coords

o checkPoint4
g checkPoint4
s 2
f 25/25/19 26/26/19 27/27/19 
f 27/27/19 28/28/19 25/25/19 
s 4
f 29/28/20 30/25/20 31/26/20 
f 31/26/20 32/27/20 29/28/20 
s 8
f 25/28/21 28/25/21 30/29/21 
f 30/29/21 29/30/21 25/28/21 
s 16
f 28/28/22 27/31/22 31/32/22 
f 31/32/22 30/30/22 28/28/22 
s 32
f 27/28/23 26/25/23 32/29/23 
f 32/29/23 31/30/23 27/28/23 
s 64
f 26/28/24 25/31/24 29/32/24 
f 29/32/24 32/30/24 26/28/24 
# 12 faces

#
# object checkPoint5
#

v  -82.69562 0.00000 60.61196
v  -82.56679 0.00000 60.98398
v  -106.36433 0.00000 69.22517
v  -106.49316 0.00000 68.85314
v  -82.69562 10.00000 60.61196
v  -106.49316 10.00000 68.85314
v  -106.36433 10.00000 69.22517
v  -82.56679 10.00000 60.98398
# 8 vertices

vn 0.00000 -1.00000 -0.00000
vn 0.00000 1.00000 -0.00000
vn -0.32724 0.00000 -0.94494
vn -0.94494 0.00000 0.32724
vn 0.32724 0.00000 0.94494
vn 0.94494 0.00000 -0.32724
# 6 vertex normals

vt 25.35241 0.00000 0.00000
vt 25.35241 0.39370 0.00000
vt 0.00000 0.39370 0.00000
vt 0.00000 0.00000 0.00000
vt 25.35241 10.00000 0.00000
vt 0.00000 10.00000 0.00000
vt 0.39370 0.00000 0.00000
vt 0.39370 10.00000 0.00000
# 8 texture coords

o checkPoint5
g checkPoint5
s 2
f 33/33/25 34/34/25 35/35/25 
f 35/35/25 36/36/25 33/33/25 
s 4
f 37/36/26 38/33/26 39/34/26 
f 39/34/26 40/35/26 37/36/26 
s 8
f 33/36/27 36/33/27 38/37/27 
f 38/37/27 37/38/27 33/36/27 
s 16
f 36/36/28 35/39/28 39/40/28 
f 39/40/28 38/38/28 36/36/28 
s 32
f 35/36/29 34/33/29 40/37/29 
f 40/37/29 39/38/29 35/36/29 
s 64
f 34/36/30 33/39/30 37/40/30 
f 37/40/30 40/38/30 34/36/30 
# 12 faces

#
# object checkPoint6
#

v  -109.74854 0.00000 7.73455
v  -109.74854 0.00000 7.34085
v  -84.39613 0.00000 7.34085
v  -84.39613 0.00000 7.73455
v  -109.74854 10.00000 7.73455
v  -84.39613 10.00000 7.73455
v  -84.39613 10.00000 7.34085
v  -109.74854 10.00000 7.34085
# 8 vertices

vn 0.00000 -1.00000 -0.00000
vn 0.00000 1.00000 -0.00000
vn -0.00000 0.00000 1.00000
vn 1.00000 0.00000 0.00000
vn 0.00000 0.00000 -1.00000
vn -1.00000 0.00000 -0.00000
# 6 vertex normals

vt 25.35241 0.00000 0.00000
vt 25.35241 0.39370 0.00000
vt 0.00000 0.39370 0.00000
vt 0.00000 0.00000 0.00000
vt 25.35241 10.00000 0.00000
vt 0.00000 10.00000 0.00000
vt 0.39370 0.00000 0.00000
vt 0.39370 10.00000 0.00000
# 8 texture coords

o checkPoint6
g checkPoint6
s 2
f 41/41/31 42/42/31 43/43/31 
f 43/43/31 44/44/31 41/41/31 
s 4
f 45/44/32 46/41/32 47/42/32 
f 47/42/32 48/43/32 45/44/32 
s 8
f 41/44/33 44/41/33 46/45/33 
f 46/45/33 45/46/33 41/44/33 
s 16
f 44/44/34 43/47/34 47/48/34 
f 47/48/34 46/46/34 44/44/34 
s 32
f 43/44/35 42/41/35 48/45/35 
f 48/45/35 47/46/35 43/44/35 
s 64
f 42/44/36 41/47/36 45/48/36 
f 45/48/36 48/46/36 42/44/36 
# 12 faces

#
# object checkPoint7
#

v  -106.51290 0.00000 -68.24055
v  -106.40173 0.00000 -68.61823
v  -82.24245 0.00000 -61.50702
v  -82.35362 0.00000 -61.12934
v  -106.51290 10.00000 -68.24055
v  -82.35362 10.00000 -61.12934
v  -82.24245 10.00000 -61.50702
v  -106.40173 10.00000 -68.61823
# 8 vertices

vn 0.00000 -1.00000 -0.00000
vn 0.00000 1.00000 -0.00000
vn -0.28237 0.00000 0.95931
vn 0.95931 0.00000 0.28237
vn 0.28237 0.00000 -0.95931
vn -0.95931 0.00000 -0.28237
# 6 vertex normals

vt 25.35241 0.00000 0.00000
vt 25.35241 0.39370 0.00000
vt 0.00000 0.39370 0.00000
vt 0.00000 0.00000 0.00000
vt 25.35241 10.00000 0.00000
vt 0.00000 10.00000 0.00000
vt 0.39370 0.00000 0.00000
vt 0.39370 10.00000 0.00000
# 8 texture coords

o checkPoint7
g checkPoint7
s 2
f 49/49/37 50/50/37 51/51/37 
f 51/51/37 52/52/37 49/49/37 
s 4
f 53/52/38 54/49/38 55/50/38 
f 55/50/38 56/51/38 53/52/38 
s 8
f 49/52/39 52/49/39 54/53/39 
f 54/53/39 53/54/39 49/52/39 
s 16
f 52/52/40 51/55/40 55/56/40 
f 55/56/40 54/54/40 52/52/40 
s 32
f 51/52/41 50/49/41 56/53/41 
f 56/53/41 55/54/41 51/52/41 
s 64
f 50/52/42 49/55/42 53/56/42 
f 53/56/42 56/54/42 50/52/42 
# 12 faces

#
# object checkPoint8
#

v  -46.66175 0.00000 -108.20322
v  -46.26805 0.00000 -108.20206
v  -46.34251 0.00000 -83.01804
v  -46.73621 0.00000 -83.01920
v  -46.66175 10.00000 -108.20322
v  -46.73621 10.00000 -83.01920
v  -46.34251 10.00000 -83.01804
v  -46.26805 10.00000 -108.20206
# 8 vertices

vn 0.00000 -1.00000 -0.00000
vn 0.00000 1.00000 -0.00000
vn -1.00000 0.00000 -0.00296
vn -0.00296 0.00000 1.00000
vn 1.00000 0.00000 0.00296
vn 0.00296 0.00000 -1.00000
# 6 vertex normals

vt 25.35241 0.00000 0.00000
vt 25.35241 0.39370 0.00000
vt 0.00000 0.39370 0.00000
vt 0.00000 0.00000 0.00000
vt 25.35241 10.00000 0.00000
vt 0.00000 10.00000 0.00000
vt 0.39370 0.00000 0.00000
vt 0.39370 10.00000 0.00000
# 8 texture coords

o checkPoint8
g checkPoint8
s 2
f 57/57/43 58/58/43 59/59/43 
f 59/59/43 60/60/43 57/57/43 
s 4
f 61/60/44 62/57/44 63/58/44 
f 63/58/44 64/59/44 61/60/44 
s 8
f 57/60/45 60/57/45 62/61/45 
f 62/61/45 61/62/45 57/60/45 
s 16
f 60/60/46 59/63/46 63/64/46 
f 63/64/46 62/62/46 60/60/46 
s 32
f 59/60/47 58/57/47 64/61/47 
f 64/61/47 63/62/47 59/60/47 
s 64
f 58/60/48 57/63/48 61/64/48 
f 61/64/48 64/62/48 58/60/48 
# 12 faces

#
# object checkPoint9
#

v  10.95319 0.00000 -63.27430
v  11.05598 0.00000 -62.89425
v  -13.41714 0.00000 -56.27525
v  -13.51993 0.00000 -56.65530
v  10.95319 10.00000 -63.27430
v  -13.51993 10.00000 -56.65530
v  -13.41714 10.00000 -56.27525
v  11.05598 10.00000 -62.89425
# 8 vertices

vn 0.00000 -1.00000 -0.00000
vn 0.00000 1.00000 -0.00000
vn -0.26108 0.00000 -0.96532
vn -0.96532 0.00000 0.26108
vn 0.26108 0.00000 0.96532
vn 0.96532 0.00000 -0.26108
# 6 vertex normals

vt 25.35241 0.00000 0.00000
vt 25.35241 0.39370 0.00000
vt 0.00000 0.39370 0.00000
vt 0.00000 0.00000 0.00000
vt 25.35241 10.00000 0.00000
vt 0.00000 10.00000 0.00000
vt 0.39370 0.00000 0.00000
vt 0.39370 10.00000 0.00000
# 8 texture coords

o checkPoint9
g checkPoint9
s 2
f 65/65/49 66/66/49 67/67/49 
f 67/67/49 68/68/49 65/65/49 
s 4
f 69/68/50 70/65/50 71/66/50 
f 71/66/50 72/67/50 69/68/50 
s 8
f 65/68/51 68/65/51 70/69/51 
f 70/69/51 69/70/51 65/68/51 
s 16
f 68/68/52 67/71/52 71/72/52 
f 71/72/52 70/70/52 68/68/52 
s 32
f 67/68/53 66/65/53 72/69/53 
f 72/69/53 71/70/53 67/68/53 
s 64
f 66/68/54 65/71/54 69/72/54 
f 69/72/54 72/70/54 66/68/54 
# 12 faces

