# 3ds Max Wavefront OBJ Exporter v0.97b - (c)2007 guruware
# File Created: 27.04.2020 15:11:06

#
# object Grass
#

v  2.980797 -0.488105 431.373962
v  329.330902 -0.488105 97.192490
v  -59.688698 -0.488105 -319.058044
v  -386.038788 -0.488105 15.123398
# 4 vertices

vn 0.000000 1.000000 -0.000000
# 1 vertex normals

vt 0.000000 0.000000 0.000000
vt 1.000000 0.000000 0.000000
vt 1.000000 1.000000 0.000000
vt 0.000000 1.000000 0.000000
# 4 texture coords

o Grass
g Grass
s 1
f 1/1/1 2/2/1 3/3/1 
f 3/3/1 4/4/1 1/1/1 
# 2 faces

