# 3ds Max Wavefront OBJ Exporter v0.97b - (c)2007 guruware
# File Created: 02.04.2020 20:20:43

#
# object Cylinder001
#

v  0.0000 0.0000 -0.0000
v  0.0379 0.0000 -0.0138
v  0.0403 0.0000 -0.0000
v  0.0309 0.0000 -0.0259
v  0.0201 0.0000 -0.0349
v  0.0070 0.0000 -0.0397
v  -0.0070 0.0000 -0.0397
v  -0.0201 0.0000 -0.0349
v  -0.0309 0.0000 -0.0259
v  -0.0379 0.0000 -0.0138
v  -0.0403 0.0000 -0.0000
v  -0.0379 0.0000 0.0138
v  -0.0309 0.0000 0.0259
v  -0.0201 0.0000 0.0349
v  -0.0070 0.0000 0.0397
v  0.0070 0.0000 0.0397
v  0.0201 0.0000 0.0349
v  0.0309 0.0000 0.0259
v  0.0379 0.0000 0.0138
v  0.0379 2.0912 -0.0138
v  0.0403 2.0912 -0.0000
v  0.0309 2.0912 -0.0259
v  0.0201 2.0912 -0.0349
v  0.0070 2.0912 -0.0397
v  -0.0070 2.0912 -0.0397
v  -0.0201 2.0912 -0.0349
v  -0.0309 2.0912 -0.0259
v  -0.0379 2.0912 -0.0138
v  -0.0403 2.0912 -0.0000
v  -0.0379 2.0912 0.0138
v  -0.0309 2.0912 0.0259
v  -0.0201 2.0912 0.0349
v  -0.0070 2.0912 0.0397
v  0.0070 2.0912 0.0397
v  0.0201 2.0912 0.0349
v  0.0309 2.0912 0.0259
v  0.0379 2.0912 0.0138
v  0.0379 4.1825 -0.0138
v  0.0403 4.1825 -0.0000
v  0.0309 4.1825 -0.0259
v  0.0201 4.1825 -0.0349
v  0.0070 4.1825 -0.0397
v  -0.0070 4.1825 -0.0397
v  -0.0201 4.1825 -0.0349
v  -0.0309 4.1825 -0.0259
v  -0.0379 4.1825 -0.0138
v  -0.0403 4.1825 -0.0000
v  -0.0379 4.1825 0.0138
v  -0.0309 4.1825 0.0259
v  -0.0201 4.1825 0.0349
v  -0.0070 4.1825 0.0397
v  0.0070 4.1825 0.0397
v  0.0201 4.1825 0.0349
v  0.0309 4.1825 0.0259
v  0.0379 4.1825 0.0138
v  0.0379 6.2737 -0.0138
v  0.0403 6.2737 -0.0000
v  0.0309 6.2737 -0.0259
v  0.0201 6.2737 -0.0349
v  0.0070 6.2737 -0.0397
v  -0.0070 6.2737 -0.0397
v  -0.0201 6.2737 -0.0349
v  -0.0309 6.2737 -0.0259
v  -0.0379 6.2737 -0.0138
v  -0.0403 6.2737 -0.0000
v  -0.0379 6.2737 0.0138
v  -0.0309 6.2737 0.0259
v  -0.0201 6.2737 0.0349
v  -0.0070 6.2737 0.0397
v  0.0070 6.2737 0.0397
v  0.0201 6.2737 0.0349
v  0.0309 6.2737 0.0259
v  0.0379 6.2737 0.0138
v  0.0379 8.3650 -0.0138
v  0.0403 8.3650 -0.0000
v  0.0309 8.3650 -0.0259
v  0.0201 8.3650 -0.0349
v  0.0070 8.3650 -0.0397
v  -0.0070 8.3650 -0.0397
v  -0.0201 8.3650 -0.0349
v  -0.0309 8.3650 -0.0259
v  -0.0379 8.3650 -0.0138
v  -0.0403 8.3650 -0.0000
v  -0.0379 8.3650 0.0138
v  -0.0309 8.3650 0.0259
v  -0.0201 8.3650 0.0349
v  -0.0070 8.3650 0.0397
v  0.0070 8.3650 0.0397
v  0.0201 8.3650 0.0349
v  0.0309 8.3650 0.0259
v  0.0379 8.3650 0.0138
v  0.0379 10.4562 -0.0138
v  0.0403 10.4562 -0.0000
v  0.0309 10.4562 -0.0259
v  0.0201 10.4562 -0.0349
v  0.0070 10.4562 -0.0397
v  -0.0070 10.4562 -0.0397
v  -0.0201 10.4562 -0.0349
v  -0.0309 10.4562 -0.0259
v  -0.0379 10.4562 -0.0138
v  -0.0403 10.4562 -0.0000
v  -0.0379 10.4562 0.0138
v  -0.0309 10.4562 0.0259
v  -0.0201 10.4562 0.0349
v  -0.0070 10.4562 0.0397
v  0.0070 10.4562 0.0397
v  0.0201 10.4562 0.0349
v  0.0309 10.4562 0.0259
v  0.0379 10.4562 0.0138
v  0.0000 10.4562 -0.0000
# 110 vertices

vn 0.0000 -1.0000 -0.0000
vn 1.0000 -0.0000 0.0000
vn 0.9397 -0.0000 -0.3420
vn 0.7660 0.0000 -0.6428
vn 0.7660 -0.0000 -0.6428
vn 0.5000 0.0000 -0.8660
vn 0.5000 -0.0000 -0.8660
vn 0.1736 -0.0000 -0.9848
vn -0.1736 -0.0000 -0.9848
vn -0.5000 -0.0000 -0.8660
vn -0.7660 -0.0000 -0.6428
vn -0.9397 0.0000 -0.3420
vn -0.9397 -0.0000 -0.3420
vn -1.0000 -0.0000 -0.0000
vn -0.9397 -0.0000 0.3420
vn -0.7660 0.0000 0.6428
vn -0.7660 -0.0000 0.6428
vn -0.5000 0.0000 0.8660
vn -0.5000 -0.0000 0.8660
vn -0.1736 -0.0000 0.9848
vn 0.1736 0.0000 0.9848
vn 0.1736 -0.0000 0.9848
vn 0.5000 0.0000 0.8660
vn 0.5000 -0.0000 0.8660
vn 0.7660 0.0000 0.6428
vn 0.7660 -0.0000 0.6428
vn 0.9397 0.0000 0.3420
vn 0.9397 -0.0000 0.3420
vn 0.9397 0.0000 -0.3420
vn 1.0000 0.0000 0.0000
vn 0.1736 0.0000 -0.9848
vn -0.1736 0.0000 -0.9848
vn -0.5000 0.0000 -0.8660
vn -0.7660 0.0000 -0.6428
vn -1.0000 0.0000 -0.0000
vn -0.9397 0.0000 0.3420
vn -0.1736 0.0000 0.9848
vn 1.0000 0.0000 -0.0000
vn -1.0000 0.0000 0.0000
vn 0.0000 1.0000 -0.0000
# 40 vertex normals

vt 0.0403 0.0397 0.0000
vt 0.0781 0.0259 0.0000
vt 0.0806 0.0397 0.0000
vt 0.0711 0.0138 0.0000
vt 0.0604 0.0048 0.0000
vt 0.0473 0.0000 0.0000
vt 0.0333 0.0000 0.0000
vt 0.0201 0.0048 0.0000
vt 0.0094 0.0138 0.0000
vt 0.0024 0.0259 0.0000
vt 0.0000 0.0397 0.0000
vt 0.0024 0.0534 0.0000
vt 0.0094 0.0656 0.0000
vt 0.0201 0.0746 0.0000
vt 0.0333 0.0793 0.0000
vt 0.0473 0.0793 0.0000
vt 0.0604 0.0746 0.0000
vt 0.0711 0.0656 0.0000
vt 0.0781 0.0534 0.0000
vt 0.1898 0.0000 1.0000
vt 0.2039 2.0912 1.0000
vt 0.1898 2.0912 1.0000
vt 0.2039 0.0000 1.0000
vt 0.2179 2.0912 1.0000
vt 0.2179 0.0000 1.0000
vt 0.2320 2.0912 1.0000
vt 0.2320 0.0000 1.0000
vt 0.2461 2.0912 1.0000
vt 0.2461 0.0000 1.0000
vt -0.0070 0.0000 1.0000
vt 0.0070 2.0912 1.0000
vt -0.0070 2.0912 1.0000
vt 0.0070 0.0000 1.0000
vt 0.0211 2.0912 1.0000
vt 0.0211 0.0000 1.0000
vt 0.0352 2.0912 1.0000
vt 0.0352 0.0000 1.0000
vt 0.0492 2.0912 1.0000
vt 0.0492 0.0000 1.0000
vt 0.0633 2.0912 1.0000
vt 0.0633 0.0000 1.0000
vt 0.0773 2.0912 1.0000
vt 0.0773 0.0000 1.0000
vt 0.0914 2.0912 1.0000
vt 0.0914 0.0000 1.0000
vt 0.1055 2.0912 1.0000
vt 0.1055 0.0000 1.0000
vt 0.1195 2.0912 1.0000
vt 0.1195 0.0000 1.0000
vt 0.1336 2.0912 1.0000
vt 0.1336 0.0000 1.0000
vt 0.1476 2.0912 1.0000
vt 0.1476 0.0000 1.0000
vt 0.1617 2.0912 1.0000
vt 0.1617 0.0000 1.0000
vt 0.1758 2.0912 1.0000
vt 0.1758 0.0000 1.0000
vt 0.2039 4.1825 1.0000
vt 0.1898 4.1825 1.0000
vt 0.2179 4.1825 1.0000
vt 0.2320 4.1825 1.0000
vt 0.2461 4.1825 1.0000
vt 0.0070 4.1825 1.0000
vt -0.0070 4.1825 1.0000
vt 0.0211 4.1825 1.0000
vt 0.0352 4.1825 1.0000
vt 0.0492 4.1825 1.0000
vt 0.0633 4.1825 1.0000
vt 0.0773 4.1825 1.0000
vt 0.0914 4.1825 1.0000
vt 0.1055 4.1825 1.0000
vt 0.1195 4.1825 1.0000
vt 0.1336 4.1825 1.0000
vt 0.1476 4.1825 1.0000
vt 0.1617 4.1825 1.0000
vt 0.1758 4.1825 1.0000
vt 0.2039 6.2737 1.0000
vt 0.1898 6.2737 1.0000
vt 0.2179 6.2737 1.0000
vt 0.2320 6.2737 1.0000
vt 0.2461 6.2737 1.0000
vt 0.0070 6.2737 1.0000
vt -0.0070 6.2737 1.0000
vt 0.0211 6.2737 1.0000
vt 0.0352 6.2737 1.0000
vt 0.0492 6.2737 1.0000
vt 0.0633 6.2737 1.0000
vt 0.0773 6.2737 1.0000
vt 0.0914 6.2737 1.0000
vt 0.1055 6.2737 1.0000
vt 0.1195 6.2737 1.0000
vt 0.1336 6.2737 1.0000
vt 0.1476 6.2737 1.0000
vt 0.1617 6.2737 1.0000
vt 0.1758 6.2737 1.0000
vt 0.2039 8.3650 1.0000
vt 0.1898 8.3650 1.0000
vt 0.2179 8.3650 1.0000
vt 0.2320 8.3650 1.0000
vt 0.2461 8.3650 1.0000
vt 0.0070 8.3650 1.0000
vt -0.0070 8.3650 1.0000
vt 0.0211 8.3650 1.0000
vt 0.0352 8.3650 1.0000
vt 0.0492 8.3650 1.0000
vt 0.0633 8.3650 1.0000
vt 0.0773 8.3650 1.0000
vt 0.0914 8.3650 1.0000
vt 0.1055 8.3650 1.0000
vt 0.1195 8.3650 1.0000
vt 0.1336 8.3650 1.0000
vt 0.1476 8.3650 1.0000
vt 0.1617 8.3650 1.0000
vt 0.1758 8.3650 1.0000
vt 0.2039 10.4562 1.0000
vt 0.1898 10.4562 1.0000
vt 0.2179 10.4562 1.0000
vt 0.2320 10.4562 1.0000
vt 0.2461 10.4562 1.0000
vt 0.0070 10.4562 1.0000
vt -0.0070 10.4562 1.0000
vt 0.0211 10.4562 1.0000
vt 0.0352 10.4562 1.0000
vt 0.0492 10.4562 1.0000
vt 0.0633 10.4562 1.0000
vt 0.0773 10.4562 1.0000
vt 0.0914 10.4562 1.0000
vt 0.1055 10.4562 1.0000
vt 0.1195 10.4562 1.0000
vt 0.1336 10.4562 1.0000
vt 0.1476 10.4562 1.0000
vt 0.1617 10.4562 1.0000
vt 0.1758 10.4562 1.0000
# 133 texture coords

o Cylinder001
g Cylinder001
s 1
f 1/1/1 2/2/1 3/3/1 
f 1/1/1 4/4/1 2/2/1 
f 1/1/1 5/5/1 4/4/1 
f 1/1/1 6/6/1 5/5/1 
f 1/1/1 7/7/1 6/6/1 
f 1/1/1 8/8/1 7/7/1 
f 1/1/1 9/9/1 8/8/1 
f 1/1/1 10/10/1 9/9/1 
f 1/1/1 11/11/1 10/10/1 
f 1/1/1 12/12/1 11/11/1 
f 1/1/1 13/13/1 12/12/1 
f 1/1/1 14/14/1 13/13/1 
f 1/1/1 15/15/1 14/14/1 
f 1/1/1 16/16/1 15/15/1 
f 1/1/1 17/17/1 16/16/1 
f 1/1/1 18/18/1 17/17/1 
f 1/1/1 19/19/1 18/18/1 
f 1/1/1 3/3/1 19/19/1 
s 8
f 3/20/2 20/21/3 21/22/2 
f 3/20/2 2/23/3 20/21/3 
f 2/23/3 22/24/4 20/21/3 
f 2/23/3 4/25/5 22/24/4 
f 4/25/5 23/26/6 22/24/4 
f 4/25/5 5/27/7 23/26/6 
f 5/27/7 24/28/8 23/26/6 
f 5/27/7 6/29/8 24/28/8 
f 6/30/8 25/31/9 24/32/8 
f 6/30/8 7/33/9 25/31/9 
f 7/33/9 26/34/10 25/31/9 
f 7/33/9 8/35/10 26/34/10 
f 8/35/10 27/36/11 26/34/10 
f 8/35/10 9/37/11 27/36/11 
f 9/37/11 28/38/12 27/36/11 
f 9/37/11 10/39/13 28/38/12 
f 10/39/13 29/40/14 28/38/12 
f 10/39/13 11/41/14 29/40/14 
f 11/41/14 30/42/15 29/40/14 
f 11/41/14 12/43/15 30/42/15 
f 12/43/15 31/44/16 30/42/15 
f 12/43/15 13/45/17 31/44/16 
f 13/45/17 32/46/18 31/44/16 
f 13/45/17 14/47/19 32/46/18 
f 14/47/19 33/48/20 32/46/18 
f 14/47/19 15/49/20 33/48/20 
f 15/49/20 34/50/21 33/48/20 
f 15/49/20 16/51/22 34/50/21 
f 16/51/22 35/52/23 34/50/21 
f 16/51/22 17/53/24 35/52/23 
f 17/53/24 36/54/25 35/52/23 
f 17/53/24 18/55/26 36/54/25 
f 18/55/26 37/56/27 36/54/25 
f 18/55/26 19/57/28 37/56/27 
f 19/57/28 21/22/2 37/56/27 
f 19/57/28 3/20/2 21/22/2 
f 21/22/2 38/58/29 39/59/30 
f 21/22/2 20/21/3 38/58/29 
f 20/21/3 40/60/4 38/58/29 
f 20/21/3 22/24/4 40/60/4 
f 22/24/4 41/61/6 40/60/4 
f 22/24/4 23/26/6 41/61/6 
f 23/26/6 42/62/31 41/61/6 
f 23/26/6 24/28/8 42/62/31 
f 24/32/8 43/63/32 42/64/31 
f 24/32/8 25/31/9 43/63/32 
f 25/31/9 44/65/33 43/63/32 
f 25/31/9 26/34/10 44/65/33 
f 26/34/10 45/66/34 44/65/33 
f 26/34/10 27/36/11 45/66/34 
f 27/36/11 46/67/12 45/66/34 
f 27/36/11 28/38/12 46/67/12 
f 28/38/12 47/68/35 46/67/12 
f 28/38/12 29/40/14 47/68/35 
f 29/40/14 48/69/36 47/68/35 
f 29/40/14 30/42/15 48/69/36 
f 30/42/15 49/70/16 48/69/36 
f 30/42/15 31/44/16 49/70/16 
f 31/44/16 50/71/18 49/70/16 
f 31/44/16 32/46/18 50/71/18 
f 32/46/18 51/72/37 50/71/18 
f 32/46/18 33/48/20 51/72/37 
f 33/48/20 52/73/21 51/72/37 
f 33/48/20 34/50/21 52/73/21 
f 34/50/21 53/74/23 52/73/21 
f 34/50/21 35/52/23 53/74/23 
f 35/52/23 54/75/25 53/74/23 
f 35/52/23 36/54/25 54/75/25 
f 36/54/25 55/76/27 54/75/25 
f 36/54/25 37/56/27 55/76/27 
f 37/56/27 39/59/30 55/76/27 
f 37/56/27 21/22/2 39/59/30 
f 39/59/30 56/77/29 57/78/30 
f 39/59/30 38/58/29 56/77/29 
f 38/58/29 58/79/4 56/77/29 
f 38/58/29 40/60/4 58/79/4 
f 40/60/4 59/80/6 58/79/4 
f 40/60/4 41/61/6 59/80/6 
f 41/61/6 60/81/31 59/80/6 
f 41/61/6 42/62/31 60/81/31 
f 42/64/31 61/82/32 60/83/31 
f 42/64/31 43/63/32 61/82/32 
f 43/63/32 62/84/33 61/82/32 
f 43/63/32 44/65/33 62/84/33 
f 44/65/33 63/85/34 62/84/33 
f 44/65/33 45/66/34 63/85/34 
f 45/66/34 64/86/12 63/85/34 
f 45/66/34 46/67/12 64/86/12 
f 46/67/12 65/87/35 64/86/12 
f 46/67/12 47/68/35 65/87/35 
f 47/68/35 66/88/36 65/87/35 
f 47/68/35 48/69/36 66/88/36 
f 48/69/36 67/89/16 66/88/36 
f 48/69/36 49/70/16 67/89/16 
f 49/70/16 68/90/18 67/89/16 
f 49/70/16 50/71/18 68/90/18 
f 50/71/18 69/91/37 68/90/18 
f 50/71/18 51/72/37 69/91/37 
f 51/72/37 70/92/21 69/91/37 
f 51/72/37 52/73/21 70/92/21 
f 52/73/21 71/93/23 70/92/21 
f 52/73/21 53/74/23 71/93/23 
f 53/74/23 72/94/25 71/93/23 
f 53/74/23 54/75/25 72/94/25 
f 54/75/25 73/95/27 72/94/25 
f 54/75/25 55/76/27 73/95/27 
f 55/76/27 57/78/30 73/95/27 
f 55/76/27 39/59/30 57/78/30 
f 57/78/30 74/96/29 75/97/38 
f 57/78/30 56/77/29 74/96/29 
f 56/77/29 76/98/4 74/96/29 
f 56/77/29 58/79/4 76/98/4 
f 58/79/4 77/99/6 76/98/4 
f 58/79/4 59/80/6 77/99/6 
f 59/80/6 78/100/31 77/99/6 
f 59/80/6 60/81/31 78/100/31 
f 60/83/31 79/101/32 78/102/31 
f 60/83/31 61/82/32 79/101/32 
f 61/82/32 80/103/33 79/101/32 
f 61/82/32 62/84/33 80/103/33 
f 62/84/33 81/104/34 80/103/33 
f 62/84/33 63/85/34 81/104/34 
f 63/85/34 82/105/12 81/104/34 
f 63/85/34 64/86/12 82/105/12 
f 64/86/12 83/106/39 82/105/12 
f 64/86/12 65/87/35 83/106/39 
f 65/87/35 84/107/36 83/106/39 
f 65/87/35 66/88/36 84/107/36 
f 66/88/36 85/108/16 84/107/36 
f 66/88/36 67/89/16 85/108/16 
f 67/89/16 86/109/18 85/108/16 
f 67/89/16 68/90/18 86/109/18 
f 68/90/18 87/110/37 86/109/18 
f 68/90/18 69/91/37 87/110/37 
f 69/91/37 88/111/21 87/110/37 
f 69/91/37 70/92/21 88/111/21 
f 70/92/21 89/112/23 88/111/21 
f 70/92/21 71/93/23 89/112/23 
f 71/93/23 90/113/25 89/112/23 
f 71/93/23 72/94/25 90/113/25 
f 72/94/25 91/114/27 90/113/25 
f 72/94/25 73/95/27 91/114/27 
f 73/95/27 75/97/38 91/114/27 
f 73/95/27 57/78/30 75/97/38 
f 75/97/38 92/115/29 93/116/30 
f 75/97/38 74/96/29 92/115/29 
f 74/96/29 94/117/4 92/115/29 
f 74/96/29 76/98/4 94/117/4 
f 76/98/4 95/118/6 94/117/4 
f 76/98/4 77/99/6 95/118/6 
f 77/99/6 96/119/31 95/118/6 
f 77/99/6 78/100/31 96/119/31 
f 78/102/31 97/120/32 96/121/31 
f 78/102/31 79/101/32 97/120/32 
f 79/101/32 98/122/33 97/120/32 
f 79/101/32 80/103/33 98/122/33 
f 80/103/33 99/123/34 98/122/33 
f 80/103/33 81/104/34 99/123/34 
f 81/104/34 100/124/12 99/123/34 
f 81/104/34 82/105/12 100/124/12 
f 82/105/12 101/125/39 100/124/12 
f 82/105/12 83/106/39 101/125/39 
f 83/106/39 102/126/36 101/125/39 
f 83/106/39 84/107/36 102/126/36 
f 84/107/36 103/127/16 102/126/36 
f 84/107/36 85/108/16 103/127/16 
f 85/108/16 104/128/18 103/127/16 
f 85/108/16 86/109/18 104/128/18 
f 86/109/18 105/129/37 104/128/18 
f 86/109/18 87/110/37 105/129/37 
f 87/110/37 106/130/21 105/129/37 
f 87/110/37 88/111/21 106/130/21 
f 88/111/21 107/131/23 106/130/21 
f 88/111/21 89/112/23 107/131/23 
f 89/112/23 108/132/25 107/131/23 
f 89/112/23 90/113/25 108/132/25 
f 90/113/25 109/133/27 108/132/25 
f 90/113/25 91/114/27 109/133/27 
f 91/114/27 93/116/30 109/133/27 
f 91/114/27 75/97/38 93/116/30 
s 1
f 110/1/40 93/3/40 92/19/40 
f 110/1/40 92/19/40 94/18/40 
f 110/1/40 94/18/40 95/17/40 
f 110/1/40 95/17/40 96/16/40 
f 110/1/40 96/16/40 97/15/40 
f 110/1/40 97/15/40 98/14/40 
f 110/1/40 98/14/40 99/13/40 
f 110/1/40 99/13/40 100/12/40 
f 110/1/40 100/12/40 101/11/40 
f 110/1/40 101/11/40 102/10/40 
f 110/1/40 102/10/40 103/9/40 
f 110/1/40 103/9/40 104/8/40 
f 110/1/40 104/8/40 105/7/40 
f 110/1/40 105/7/40 106/6/40 
f 110/1/40 106/6/40 107/5/40 
f 110/1/40 107/5/40 108/4/40 
f 110/1/40 108/4/40 109/2/40 
f 110/1/40 109/2/40 93/3/40 
# 216 faces

