# 3ds Max Wavefront OBJ Exporter v0.97b - (c)2007 guruware
# File Created: 25.04.2020 22:38:57

#
# object Hedra001
#

v  0.000248 8.172654 -0.000351
v  0.696219 6.607239 0.695620
v  0.696219 6.607239 -0.696322
v  0.000248 5.041823 -0.000351
v  -0.695723 6.607239 -0.696322
v  -0.695723 6.607239 0.695620
# 6 vertices

vn 0.816497 0.577350 -0.000000
vn -0.000000 -0.577350 -0.816497
vn -0.816497 0.577350 0.000000
vn 0.000000 -0.577350 0.816497
vn 0.000000 0.577350 -0.816497
vn 0.000000 0.577350 0.816497
vn 0.816496 -0.577350 -0.000000
vn -0.816497 -0.577350 0.000000
# 8 vertex normals

vt 0.000000 0.500000 0.000000
vt -0.500000 -0.000000 0.500000
vt 0.500000 -0.000000 0.500000
vt -0.000000 0.500000 0.500000
vt -0.500000 -0.000000 -0.000000
vt 0.000000 -0.500000 0.500000
vt 0.500000 0.000000 -0.500000
vt -0.500000 0.000000 -0.500000
vt 0.000000 -0.500000 -0.500000
vt -0.000000 0.500000 -0.500000
vt 0.500000 0.000000 0.000000
vt -0.000000 -0.500000 -0.000000
# 12 texture coords

o Hedra001
g Hedra001
s off
f 1/1/1 2/2/1 3/3/1 
f 3/4/2 4/5/2 5/6/2 
f 5/7/3 6/8/3 1/1/3 
f 6/9/4 4/5/4 2/10/4 
f 3/4/5 5/6/5 1/11/5 
f 6/9/6 2/10/6 1/11/6 
f 2/2/7 4/12/7 3/3/7 
f 6/8/8 5/7/8 4/12/8 
# 8 faces

