# 3ds Max Wavefront OBJ Exporter v0.97b - (c)2007 guruware
# File Created: 05.04.2020 20:41:01

#
# object Road
#

v  -84.3961 -1.0156 -51.2311
v  -84.3961 -0.0000 -51.2311
v  -109.7487 -0.0000 -51.2311
v  -109.7487 -1.0156 -51.2311
v  -48.6524 -1.0156 -83.8807
v  -48.6524 -1.0156 -107.0386
v  -48.6524 -0.0000 -107.0386
v  -48.6524 -0.0000 -83.8807
v  -83.7093 -0.0000 -57.6007
v  -108.5747 -0.0000 -62.1186
v  -81.6753 -0.0000 -63.7256
v  -105.0980 -0.0000 -72.5877
v  -78.3722 -0.0000 -69.3702
v  -99.4521 -0.0000 -82.2361
v  -73.9270 -0.0000 -74.3178
v  -91.8540 -0.0000 -90.6930
v  -68.5105 -0.0000 -78.3782
v  -82.5957 -0.0000 -97.6334
v  -62.3309 -0.0000 -81.3954
v  -72.0329 -0.0000 -102.7905
v  -55.6257 -0.0000 -83.2533
v  -60.5717 -0.0000 -105.9663
v  -83.7093 -1.0156 -57.6007
v  -81.6753 -1.0156 -63.7256
v  -78.3722 -1.0156 -69.3702
v  -73.9270 -1.0156 -74.3178
v  -68.5105 -1.0156 -78.3782
v  -62.3309 -1.0156 -81.3954
v  -55.6257 -1.0156 -83.2533
v  -108.5747 -1.0156 -62.1186
v  -105.0980 -1.0156 -72.5877
v  -99.4521 -1.0156 -82.2361
v  -91.8540 -1.0156 -90.6930
v  -82.5957 -1.0156 -97.6334
v  -72.0329 -1.0156 -102.7905
v  -60.5717 -1.0156 -105.9663
v  -109.7486 -0.0000 51.3597
v  -109.7486 -1.0156 51.3597
v  -84.3961 -1.0156 51.3597
v  -84.3961 -0.0000 51.3597
v  -109.7486 -0.0000 -51.2311
v  -109.7486 -1.0156 -51.2311
v  -109.7487 -1.0156 51.3597
v  -109.7487 -0.0000 51.3597
v  -48.6524 -0.0000 84.0093
v  -48.6524 -0.0000 107.1672
v  -48.6524 -1.0156 107.1672
v  -48.6524 -1.0156 84.0093
v  -83.7093 -1.0156 57.7293
v  -108.5747 -1.0156 62.2472
v  -81.6753 -1.0156 63.8542
v  -105.0980 -1.0156 72.7163
v  -78.3722 -1.0156 69.4988
v  -99.4521 -1.0156 82.3647
v  -73.9270 -1.0156 74.4464
v  -91.8540 -1.0156 90.8216
v  -68.5105 -1.0156 78.5068
v  -82.5957 -1.0156 97.7620
v  -62.3309 -1.0156 81.5240
v  -72.0329 -1.0156 102.9191
v  -55.6257 -1.0156 83.3819
v  -60.5717 -1.0156 106.0949
v  -83.7093 -0.0000 57.7293
v  -81.6753 -0.0000 63.8542
v  -78.3722 -0.0000 69.4988
v  -73.9270 -0.0000 74.4464
v  -68.5105 -0.0000 78.5068
v  -62.3309 -0.0000 81.5240
v  -55.6257 -0.0000 83.3819
v  -108.5747 -0.0000 62.2472
v  -105.0980 -0.0000 72.7163
v  -99.4521 -0.0000 82.3647
v  -91.8540 -0.0000 90.8216
v  -82.5957 -0.0000 97.7620
v  -72.0329 -0.0000 102.9191
v  -60.5717 -0.0000 106.0949
v  -12.9087 -0.0000 51.3597
v  12.4439 -0.0000 51.3597
v  12.4439 -1.0156 51.3597
v  -12.9087 -1.0156 51.3597
v  -13.5955 -1.0156 57.7293
v  11.2699 -1.0156 62.2472
v  -15.6296 -1.0156 63.8542
v  7.7932 -1.0156 72.7163
v  -18.9326 -1.0156 69.4988
v  2.1473 -1.0156 82.3647
v  -23.3778 -1.0156 74.4464
v  -5.4508 -1.0156 90.8216
v  -28.7943 -1.0156 78.5068
v  -14.7091 -1.0156 97.7620
v  -34.9739 -1.0156 81.5240
v  -25.2719 -1.0156 102.9191
v  -41.6792 -1.0156 83.3819
v  -36.7331 -1.0156 106.0949
v  -13.5955 -0.0000 57.7293
v  -15.6296 -0.0000 63.8542
v  -18.9326 -0.0000 69.4988
v  -23.3778 -0.0000 74.4464
v  -28.7943 -0.0000 78.5068
v  -34.9739 -0.0000 81.5240
v  -41.6792 -0.0000 83.3819
v  11.2699 -0.0000 62.2472
v  7.7932 -0.0000 72.7163
v  2.1473 -0.0000 82.3647
v  -5.4508 -0.0000 90.8216
v  -14.7091 -0.0000 97.7620
v  -25.2719 -0.0000 102.9191
v  -36.7331 -0.0000 106.0949
v  12.4438 -0.0000 51.3597
v  12.4438 -1.0156 51.3597
v  12.4438 -0.0000 -51.2311
v  12.4438 -1.0156 -51.2311
v  -12.9087 -1.0156 -51.2311
v  -12.9087 -0.0000 -51.2311
v  12.4439 -1.0156 -51.2311
v  12.4439 -0.0000 -51.2311
v  -13.5955 -0.0000 -57.6007
v  11.2699 -0.0000 -62.1186
v  -15.6296 -0.0000 -63.7256
v  7.7932 -0.0000 -72.5877
v  -18.9326 -0.0000 -69.3702
v  2.1473 -0.0000 -82.2361
v  -23.3778 -0.0000 -74.3178
v  -5.4508 -0.0000 -90.6930
v  -28.7943 -0.0000 -78.3782
v  -14.7091 -0.0000 -97.6334
v  -34.9739 -0.0000 -81.3954
v  -25.2719 -0.0000 -102.7905
v  -41.6792 -0.0000 -83.2533
v  -36.7331 -0.0000 -105.9663
v  -13.5955 -1.0156 -57.6007
v  -15.6296 -1.0156 -63.7256
v  -18.9326 -1.0156 -69.3702
v  -23.3778 -1.0156 -74.3178
v  -28.7943 -1.0156 -78.3782
v  -34.9739 -1.0156 -81.3954
v  -41.6792 -1.0156 -83.2533
v  11.2699 -1.0156 -62.1186
v  7.7932 -1.0156 -72.5877
v  2.1473 -1.0156 -82.2361
v  -5.4508 -1.0156 -90.6930
v  -14.7091 -1.0156 -97.6334
v  -25.2719 -1.0156 -102.7905
v  -36.7331 -1.0156 -105.9663
# 144 vertices

vn -0.0000 0.0000 1.0000
vn 1.0000 0.0000 -0.0000
vn 0.0000 1.0000 -0.0000
vn 0.9808 0.0000 0.1951
vn 0.9952 0.0000 0.0980
vn 0.9239 0.0000 0.3827
vn 0.8315 0.0000 0.5556
vn 0.7071 0.0000 0.7071
vn 0.5556 0.0000 0.8315
vn 0.3827 0.0000 0.9239
vn 0.1951 0.0000 0.9808
vn 0.0980 0.0000 0.9952
vn 0.0000 -1.0000 0.0000
vn -0.9808 -0.0000 -0.1951
vn -0.9952 -0.0000 -0.0980
vn -0.9239 -0.0000 -0.3827
vn -0.8315 -0.0000 -0.5556
vn -0.7071 -0.0000 -0.7071
vn -0.5556 -0.0000 -0.8315
vn -0.3827 -0.0000 -0.9239
vn -0.1951 -0.0000 -0.9808
vn -0.0980 -0.0000 -0.9952
vn 0.0000 0.0000 1.0000
vn 0.0000 -0.0000 -1.0000
vn 0.0000 1.0000 0.0000
vn 0.0000 -1.0000 -0.0000
vn -1.0000 0.0000 -0.0000
vn -0.0000 -1.0000 -0.0000
vn 0.9808 -0.0000 -0.1951
vn 0.9952 -0.0000 -0.0980
vn 0.9239 -0.0000 -0.3827
vn 0.8315 -0.0000 -0.5556
vn 0.7071 -0.0000 -0.7071
vn 0.5556 -0.0000 -0.8315
vn 0.3827 -0.0000 -0.9239
vn 0.1951 -0.0000 -0.9808
vn 0.0980 -0.0000 -0.9952
vn -0.0000 1.0000 0.0000
vn -0.9808 0.0000 0.1951
vn -0.9952 0.0000 0.0980
vn -0.9239 0.0000 0.3827
vn -0.8315 0.0000 0.5556
vn -0.7071 0.0000 0.7071
vn -0.5556 0.0000 0.8315
vn -0.3827 0.0000 0.9239
vn -0.1951 0.0000 0.9808
vn -0.0980 0.0000 0.9952
# 47 vertex normals

vt 0.0000 10.0000 0.0000
vt 0.0000 0.0000 0.0000
vt 10.0000 0.0000 0.0000
vt 10.0000 10.0000 0.0000
vt 10.0000 3.7500 0.0000
vt 0.0000 3.7500 0.0000
vt 10.0000 7.5000 0.0000
vt 0.0000 7.5000 0.0000
vt 10.0000 11.2500 0.0000
vt 0.0000 11.2500 0.0000
vt 10.0000 15.0000 0.0000
vt 0.0000 15.0000 0.0000
vt 10.0000 18.7500 0.0000
vt 0.0000 18.7500 0.0000
vt 10.0000 22.5000 0.0000
vt 0.0000 22.5000 0.0000
vt 10.0000 26.2500 0.0000
vt 0.0000 26.2500 0.0000
vt 10.0000 30.0000 0.0000
vt 0.0000 30.0000 0.0000
vt 1.0000 0.0000 0.0000
vt 1.0000 1.4014 0.0000
vt -9.0000 1.4014 0.0000
vt -9.0000 0.0000 0.0000
vt 10.0000 1.4014 0.0000
vt 0.0000 1.4014 0.0000
vt 1.4014 0.0000 0.0000
vt 1.4014 10.0000 0.0000
# 28 texture coords

o Road
g Road
s 2
f 1/1/1 2/2/1 3/3/1 
f 3/3/1 4/4/1 1/1/1 
s 4
f 5/4/2 6/1/2 7/2/2 
f 7/2/2 8/3/2 5/4/2 
s 8
f 9/5/3 10/6/3 3/2/3 
f 3/2/3 2/3/3 9/5/3 
f 11/7/3 12/8/3 10/6/3 
f 10/6/3 9/5/3 11/7/3 
f 13/9/3 14/10/3 12/8/3 
f 12/8/3 11/7/3 13/9/3 
f 15/11/3 16/12/3 14/10/3 
f 14/10/3 13/9/3 15/11/3 
f 17/13/3 18/14/3 16/12/3 
f 16/12/3 15/11/3 17/13/3 
f 19/15/3 20/16/3 18/14/3 
f 18/14/3 17/13/3 19/15/3 
f 21/17/3 22/18/3 20/16/3 
f 20/16/3 19/15/3 21/17/3 
f 8/19/3 7/20/3 22/18/3 
f 22/18/3 21/17/3 8/19/3 
s 16
f 23/5/4 9/6/4 2/2/5 
f 2/2/5 1/3/5 23/5/4 
f 24/7/6 11/8/6 9/6/4 
f 9/6/4 23/5/4 24/7/6 
f 25/9/7 13/10/7 11/8/6 
f 11/8/6 24/7/6 25/9/7 
f 26/11/8 15/12/8 13/10/7 
f 13/10/7 25/9/7 26/11/8 
f 27/13/9 17/14/9 15/12/8 
f 15/12/8 26/11/8 27/13/9 
f 28/15/10 19/16/10 17/14/9 
f 17/14/9 27/13/9 28/15/10 
f 29/17/11 21/18/11 19/16/10 
f 19/16/10 28/15/10 29/17/11 
f 5/19/12 8/20/12 21/18/11 
f 21/18/11 29/17/11 5/19/12 
s 32
f 30/5/13 23/6/13 1/2/13 
f 1/2/13 4/3/13 30/5/13 
f 31/7/13 24/8/13 23/6/13 
f 23/6/13 30/5/13 31/7/13 
f 32/9/13 25/10/13 24/8/13 
f 24/8/13 31/7/13 32/9/13 
f 33/11/13 26/12/13 25/10/13 
f 25/10/13 32/9/13 33/11/13 
f 34/13/13 27/14/13 26/12/13 
f 26/12/13 33/11/13 34/13/13 
f 35/15/13 28/16/13 27/14/13 
f 27/14/13 34/13/13 35/15/13 
f 36/17/13 29/18/13 28/16/13 
f 28/16/13 35/15/13 36/17/13 
f 6/19/13 5/20/13 29/18/13 
f 29/18/13 36/17/13 6/19/13 
s 64
f 10/5/14 30/6/14 4/2/15 
f 4/2/15 3/3/15 10/5/14 
f 12/7/16 31/8/16 30/6/14 
f 30/6/14 10/5/14 12/7/16 
f 14/9/17 32/10/17 31/8/16 
f 31/8/16 12/7/16 14/9/17 
f 16/11/18 33/12/18 32/10/17 
f 32/10/17 14/9/17 16/11/18 
f 18/13/19 34/14/19 33/12/18 
f 33/12/18 16/11/18 18/13/19 
f 20/15/20 35/16/20 34/14/19 
f 34/14/19 18/13/19 20/15/20 
f 22/17/21 36/18/21 35/16/20 
f 35/16/20 20/15/20 22/17/21 
f 7/19/22 6/20/22 36/18/21 
f 36/18/21 22/17/21 7/19/22 
s 2
f 37/21/23 38/22/23 39/23/23 
f 39/23/23 40/24/23 37/21/23 
s 4
f 41/2/24 2/3/24 1/25/24 
f 1/25/24 42/26/24 41/2/24 
s 8
f 37/2/25 40/3/25 2/4/25 
f 2/4/25 41/1/25 37/2/25 
s 16
f 40/2/2 39/27/2 1/28/2 
f 1/28/2 2/1/2 40/2/2 
s 32
f 39/2/26 38/3/26 42/4/26 
f 42/4/26 1/1/26 39/2/26 
s 64
f 38/2/27 37/27/27 41/28/27 
f 41/28/27 42/1/27 38/2/27 
s 2
f 40/1/24 39/2/24 43/3/24 
f 43/3/24 44/4/24 40/1/24 
s 4
f 45/4/2 46/1/2 47/2/2 
f 47/2/2 48/3/2 45/4/2 
s 8
f 49/5/28 50/6/28 43/2/28 
f 43/2/28 39/3/26 49/5/28 
f 51/7/28 52/8/28 50/6/28 
f 50/6/28 49/5/28 51/7/28 
f 53/9/28 54/10/26 52/8/28 
f 52/8/28 51/7/28 53/9/28 
f 55/11/26 56/12/26 54/10/26 
f 54/10/26 53/9/28 55/11/26 
f 57/13/26 58/14/26 56/12/26 
f 56/12/26 55/11/26 57/13/26 
f 59/15/28 60/16/28 58/14/26 
f 58/14/26 57/13/26 59/15/28 
f 61/17/26 62/18/26 60/16/28 
f 60/16/28 59/15/28 61/17/26 
f 48/19/26 47/20/26 62/18/26 
f 62/18/26 61/17/26 48/19/26 
s 16
f 63/5/29 49/6/29 39/2/30 
f 39/2/30 40/3/30 63/5/29 
f 64/7/31 51/8/31 49/6/29 
f 49/6/29 63/5/29 64/7/31 
f 65/9/32 53/10/32 51/8/31 
f 51/8/31 64/7/31 65/9/32 
f 66/11/33 55/12/33 53/10/32 
f 53/10/32 65/9/32 66/11/33 
f 67/13/34 57/14/34 55/12/33 
f 55/12/33 66/11/33 67/13/34 
f 68/15/35 59/16/35 57/14/34 
f 57/14/34 67/13/34 68/15/35 
f 69/17/36 61/18/36 59/16/35 
f 59/16/35 68/15/35 69/17/36 
f 45/19/37 48/20/37 61/18/36 
f 61/18/36 69/17/36 45/19/37 
s 32
f 70/5/25 63/6/25 40/2/25 
f 40/2/25 44/3/25 70/5/25 
f 71/7/25 64/8/25 63/6/25 
f 63/6/25 70/5/25 71/7/25 
f 72/9/38 65/10/25 64/8/25 
f 64/8/25 71/7/25 72/9/38 
f 73/11/38 66/12/38 65/10/25 
f 65/10/25 72/9/38 73/11/38 
f 74/13/38 67/14/38 66/12/38 
f 66/12/38 73/11/38 74/13/38 
f 75/15/25 68/16/25 67/14/38 
f 67/14/38 74/13/38 75/15/25 
f 76/17/38 69/18/25 68/16/25 
f 68/16/25 75/15/25 76/17/38 
f 46/19/38 45/20/38 69/18/25 
f 69/18/25 76/17/38 46/19/38 
s 64
f 50/5/39 70/6/39 44/2/40 
f 44/2/40 43/3/40 50/5/39 
f 52/7/41 71/8/41 70/6/39 
f 70/6/39 50/5/39 52/7/41 
f 54/9/42 72/10/42 71/8/41 
f 71/8/41 52/7/41 54/9/42 
f 56/11/43 73/12/43 72/10/42 
f 72/10/42 54/9/42 56/11/43 
f 58/13/44 74/14/44 73/12/43 
f 73/12/43 56/11/43 58/13/44 
f 60/15/45 75/16/45 74/14/44 
f 74/14/44 58/13/44 60/15/45 
f 62/17/46 76/18/46 75/16/45 
f 75/16/45 60/15/45 62/17/46 
f 47/19/47 46/20/47 76/18/46 
f 76/18/46 62/17/46 47/19/47 
s 2
f 77/1/24 78/4/24 79/3/24 
f 79/3/24 80/2/24 77/1/24 
s 4
f 45/4/27 48/3/27 47/2/27 
f 47/2/27 46/1/27 45/4/27 
s 8
f 81/5/26 80/3/26 79/2/26 
f 79/2/26 82/6/26 81/5/26 
f 83/7/26 81/5/26 82/6/26 
f 82/6/26 84/8/26 83/7/26 
f 85/9/26 83/7/26 84/8/26 
f 84/8/26 86/10/28 85/9/26 
f 87/11/28 85/9/26 86/10/28 
f 86/10/28 88/12/28 87/11/28 
f 89/13/28 87/11/28 88/12/28 
f 88/12/28 90/14/28 89/13/28 
f 91/15/26 89/13/28 90/14/28 
f 90/14/28 92/16/26 91/15/26 
f 93/17/28 91/15/26 92/16/26 
f 92/16/26 94/18/28 93/17/28 
f 48/19/28 93/17/28 94/18/28 
f 94/18/28 47/20/28 48/19/28 
s 16
f 95/5/14 77/3/15 80/2/15 
f 80/2/15 81/6/14 95/5/14 
f 96/7/16 95/5/14 81/6/14 
f 81/6/14 83/8/16 96/7/16 
f 97/9/17 96/7/16 83/8/16 
f 83/8/16 85/10/17 97/9/17 
f 98/11/18 97/9/17 85/10/17 
f 85/10/17 87/12/18 98/11/18 
f 99/13/19 98/11/18 87/12/18 
f 87/12/18 89/14/19 99/13/19 
f 100/15/20 99/13/19 89/14/19 
f 89/14/19 91/16/20 100/15/20 
f 101/17/21 100/15/20 91/16/20 
f 91/16/20 93/18/21 101/17/21 
f 45/19/22 101/17/21 93/18/21 
f 93/18/21 48/20/22 45/19/22 
s 32
f 102/5/38 78/3/25 77/2/38 
f 77/2/38 95/6/38 102/5/38 
f 103/7/38 102/5/38 95/6/38 
f 95/6/38 96/8/38 103/7/38 
f 104/9/25 103/7/38 96/8/38 
f 96/8/38 97/10/38 104/9/25 
f 105/11/25 104/9/25 97/10/38 
f 97/10/38 98/12/25 105/11/25 
f 106/13/25 105/11/25 98/12/25 
f 98/12/25 99/14/25 106/13/25 
f 107/15/38 106/13/25 99/14/25 
f 99/14/25 100/16/38 107/15/38 
f 108/17/25 107/15/38 100/16/38 
f 100/16/38 101/18/38 108/17/25 
f 46/19/25 108/17/25 101/18/38 
f 101/18/38 45/20/25 46/19/25 
s 64
f 82/5/4 79/3/5 78/2/5 
f 78/2/5 102/6/4 82/5/4 
f 84/7/6 82/5/4 102/6/4 
f 102/6/4 103/8/6 84/7/6 
f 86/9/7 84/7/6 103/8/6 
f 103/8/6 104/10/7 86/9/7 
f 88/11/8 86/9/7 104/10/7 
f 104/10/7 105/12/8 88/11/8 
f 90/13/9 88/11/8 105/12/8 
f 105/12/8 106/14/9 90/13/9 
f 92/15/10 90/13/9 106/14/9 
f 106/14/9 107/16/10 92/15/10 
f 94/17/11 92/15/10 107/16/10 
f 107/16/10 108/18/11 94/17/11 
f 47/19/12 94/17/11 108/18/11 
f 108/18/11 46/20/12 47/19/12 
s 2
f 109/21/23 77/24/23 80/23/23 
f 80/23/23 110/22/23 109/21/23 
s 4
f 111/2/24 112/26/24 113/25/24 
f 113/25/24 114/3/24 111/2/24 
s 8
f 109/2/25 111/1/25 114/4/25 
f 114/4/25 77/3/25 109/2/25 
s 16
f 77/2/27 114/1/27 113/28/27 
f 113/28/27 80/27/27 77/2/27 
s 32
f 80/2/26 113/1/26 112/4/26 
f 112/4/26 110/3/26 80/2/26 
s 64
f 110/2/2 112/1/2 111/28/2 
f 111/28/2 109/27/2 110/2/2 
s 2
f 113/1/23 115/4/23 116/3/23 
f 116/3/23 114/2/23 113/1/23 
s 4
f 5/4/27 8/3/27 7/2/27 
f 7/2/27 6/1/27 5/4/27 
s 8
f 117/5/3 114/3/3 116/2/3 
f 116/2/3 118/6/3 117/5/3 
f 119/7/3 117/5/3 118/6/3 
f 118/6/3 120/8/3 119/7/3 
f 121/9/3 119/7/3 120/8/3 
f 120/8/3 122/10/3 121/9/3 
f 123/11/3 121/9/3 122/10/3 
f 122/10/3 124/12/3 123/11/3 
f 125/13/3 123/11/3 124/12/3 
f 124/12/3 126/14/3 125/13/3 
f 127/15/3 125/13/3 126/14/3 
f 126/14/3 128/16/3 127/15/3 
f 129/17/3 127/15/3 128/16/3 
f 128/16/3 130/18/3 129/17/3 
f 8/19/3 129/17/3 130/18/3 
f 130/18/3 7/20/3 8/19/3 
s 16
f 131/5/39 113/3/40 114/2/40 
f 114/2/40 117/6/39 131/5/39 
f 132/7/41 131/5/39 117/6/39 
f 117/6/39 119/8/41 132/7/41 
f 133/9/42 132/7/41 119/8/41 
f 119/8/41 121/10/42 133/9/42 
f 134/11/43 133/9/42 121/10/42 
f 121/10/42 123/12/43 134/11/43 
f 135/13/44 134/11/43 123/12/43 
f 123/12/43 125/14/44 135/13/44 
f 136/15/45 135/13/44 125/14/44 
f 125/14/44 127/16/45 136/15/45 
f 137/17/46 136/15/45 127/16/45 
f 127/16/45 129/18/46 137/17/46 
f 5/19/47 137/17/46 129/18/46 
f 129/18/46 8/20/47 5/19/47 
s 32
f 138/5/13 115/3/13 113/2/13 
f 113/2/13 131/6/13 138/5/13 
f 139/7/13 138/5/13 131/6/13 
f 131/6/13 132/8/13 139/7/13 
f 140/9/13 139/7/13 132/8/13 
f 132/8/13 133/10/13 140/9/13 
f 141/11/13 140/9/13 133/10/13 
f 133/10/13 134/12/13 141/11/13 
f 142/13/13 141/11/13 134/12/13 
f 134/12/13 135/14/13 142/13/13 
f 143/15/13 142/13/13 135/14/13 
f 135/14/13 136/16/13 143/15/13 
f 144/17/13 143/15/13 136/16/13 
f 136/16/13 137/18/13 144/17/13 
f 6/19/13 144/17/13 137/18/13 
f 137/18/13 5/20/13 6/19/13 
s 64
f 118/5/29 116/3/30 115/2/30 
f 115/2/30 138/6/29 118/5/29 
f 120/7/31 118/5/29 138/6/29 
f 138/6/29 139/8/31 120/7/31 
f 122/9/32 120/7/31 139/8/31 
f 139/8/31 140/10/32 122/9/32 
f 124/11/33 122/9/32 140/10/32 
f 140/10/32 141/12/33 124/11/33 
f 126/13/34 124/11/33 141/12/33 
f 141/12/33 142/14/34 126/13/34 
f 128/15/35 126/13/34 142/14/34 
f 142/14/34 143/16/35 128/15/35 
f 130/17/36 128/15/35 143/16/35 
f 143/16/35 144/18/36 130/17/36 
f 7/19/37 130/17/36 144/18/36 
f 144/18/36 6/20/37 7/19/37 
# 296 faces

