# 3ds Max Wavefront OBJ Exporter v0.97b - (c)2007 guruware
# File Created: 20.04.2020 13:38:29

#
# object Start
#

v  -13.728870 0.003937 2.294195
v  -13.728870 0.003937 5.172848
v  15.057680 0.003937 2.294195
v  15.057680 0.003937 5.172848
# 4 vertices

vn 0.000000 1.000000 -0.000000
# 1 vertex normals

vt 0.000000 1.000000 0.000000
vt 0.000000 0.000000 0.000000
vt 1.000000 1.000000 0.000000
vt 1.000000 0.000000 0.000000
# 4 texture coords

o Start
g Start
s 1
f 1/1/1 2/2/1 3/3/1 
f 4/4/1 3/3/1 2/2/1 
# 2 faces

